<?xml version="1.0" encoding="utf-8"?>
<!-- Generator: Adobe Illustrator 25.0.1, SVG Export Plug-In . SVG Version: 6.00 Build 0)  -->
<svg version="1.1" id="Layer_1" xmlns="http://www.w3.org/2000/svg" xmlns:xlink="http://www.w3.org/1999/xlink" x="0px" y="0px"
	 viewBox="0 0 512 512" style="enable-background:new 0 0 512 512;" xml:space="preserve">
<style type="text/css">
	.st0{fill:#FFFFFF;}
	.st1{opacity:0;}
</style>
<polygon class="st0" points="256,4.4 512,447.8 0,447.8 "/>
<polygon class="st1" points="478.6,202 418.6,305.8 403.6,273.9 425.9,259.3 395.9,200.9 478.6,202 "/>
<polygon points="379,200.7 406.4,254.2 384.5,268.5 409.5,321.6 400.4,337.5 361.4,332 331.5,268.5 353.8,253.9 326.2,200 
	379,200.7 "/>
<polygon points="309.2,199.8 334.3,248.7 312.4,263.1 343.7,329.6 277,320.2 251.4,265.9 273.7,251.3 246.9,199 309.2,199.8 "/>
<polyline points="108.2,300.7 21.1,241.7 91.5,206.3 104.8,199.6 163.6,170 210.4,146.4 210.4,146.4 207.1,198.4 230,198.7 
	254.3,246.2 232.4,260.5 259.3,317.8 203.2,309.9 196.6,360.6 132.4,317.1 "/>
<line x1="108.2" y1="300.7" x2="91.5" y2="206.3"/>
</svg>
