<?xml version="1.0" encoding="utf-8"?>
<!-- Generator: Adobe Illustrator 25.0.1, SVG Export Plug-In . SVG Version: 6.00 Build 0)  -->
<svg version="1.1" id="Layer_1" xmlns="http://www.w3.org/2000/svg" xmlns:xlink="http://www.w3.org/1999/xlink" x="0px" y="0px"
	 viewBox="0 0 512 512" style="enable-background:new 0 0 512 512;" xml:space="preserve">
<style type="text/css">
	.st0{fill:#FFFFFF;}
</style>
<polygon class="st0" points="256,4.4 512,447.8 0,447.8 "/>
<path d="M478.6,202l-60,103.8l-15-31.9l22.3-14.6l-29.9-58.4L478.6,202L478.6,202z M379,200.7l27.4,53.5l-21.9,14.4l25,53.1
	l-9.2,15.9l-39-5.4l-29.9-63.5l22.3-14.6L326.2,200L379,200.7L379,200.7z M309.2,199.8l25.1,49l-21.9,14.3l31.3,66.5l-66.7-9.3
	l-25.6-54.3l22.3-14.6L246.9,199L309.2,199.8L309.2,199.8z M108.2,300.7l-87.1-59l70.4-35.4l13.4-6.7l58.7-29.6l46.9-23.6l0,0
	l-3.4,52l22.9,0.3l24.3,47.4l-21.9,14.3l26.9,57.2l-56.1-7.8l-6.7,50.7l-64.1-43.5 M108.2,300.7l-16.7-94.4"/>
</svg>
