<svg xmlns="http://www.w3.org/2000/svg" viewBox="0 0 512 512" style="height: 512px; width: 512px;"><defs><filter id="shadow-1" height="300%" width="300%" x="-100%" y="-100%"><feFlood flood-color="rgba(19, 18, 18, 0.46)" result="flood"></feFlood><feComposite in="flood" in2="SourceGraphic" operator="atop" result="composite"></feComposite><feGaussianBlur in="composite" stdDeviation="15" result="blur"></feGaussianBlur><feOffset dx="0" dy="0" result="offset"></feOffset><feComposite in="SourceGraphic" in2="offset" operator="over"></feComposite></filter><linearGradient x1="0" x2="1" y1="1" y2="0" id="lorc-zig-arrow-gradient-0"><stop offset="0%" stop-color="#f7f2f2" stop-opacity="1"></stop><stop offset="100%" stop-color="#d113fe" stop-opacity="1"></stop></linearGradient></defs><polygon points="469.04,379,256,502,42.96,379,42.96,133,256,10,469.04,133" fill="url(#lorc-zig-arrow-gradient-0)" stroke="#000000" stroke-opacity="1" stroke-width="10"></polygon><g class="" transform="translate(-15,-19)" style=""><g transform="translate(486.4, 25.6) scale(-0.9, 0.9) rotate(-60, 256, 256) skewX(0) skewY(0)"><path d="M20.678 69.63L20.678 219.51L56.896 194.34L41.906 164.617L110.824 120.107L20.678 69.627Z" class="" fill="#ffffff" fill-opacity="1" stroke="#000000" stroke-opacity="1" stroke-width="8"></path><path d="M129.275 130.44L66.158 171.203L80.893 200.423L20.678 242.27L20.678 265.166L66.254 283.616L138.35 233.516L123.36 203.791L186.94 162.733L129.275 130.443Z" class="" fill="#ffffff" fill-opacity="1" stroke="#000000" stroke-opacity="1" stroke-width="8"></path><path d="M205.389 173.064L147.609 210.377L162.347 239.597L86.947 291.994L165.019 323.598L226.645 280.773L211.655 251.049L273.421 211.159L205.388 173.063Z" class="selected" fill="#ffffff" fill-opacity="1" stroke="#000000" stroke-opacity="1" stroke-width="8"></path><path d="M345.687 177.049L316.825 235.466L291.87 221.491L235.908 257.634L250.645 286.854L185.715 331.976L251.297 358.524L313.074 315.594L298.086 285.868L381.693 231.873L345.688 177.047Z" class="" fill="#ffffff" fill-opacity="1" stroke="#000000" stroke-opacity="1" stroke-width="8"></path><path d="M391.95 247.497L322.336 292.454L337.072 321.674L241.382 388.174L226.862 417.561L323.438 410.601L401.994 356.011L387.004 326.286L426.811 300.579L391.951 247.497Z" class="" fill="#ffffff" fill-opacity="1" stroke="#0d0d0d" stroke-opacity="1" stroke-width="8"></path><path d="M437.07 316.2L411.256 332.873L425.99 362.093L359.98 407.967L491.125 398.514L437.07 316.2Z" class="" fill="#fffdfd" fill-opacity="1" stroke="#000000" stroke-opacity="1" stroke-width="8"></path></g></g></svg>